<?xml version="1.0" encoding="iso-8859-1"?>
<!-- Generator: Adobe Illustrator 19.1.0, SVG Export Plug-In . SVG Version: 6.00 Build 0)  -->
<svg xmlns="http://www.w3.org/2000/svg" xmlns:xlink="http://www.w3.org/1999/xlink" version="1.1" id="Capa_1" x="0px" y="0px" viewBox="0 0 64 64" style="enable-background:new 0 0 64 64;" xml:space="preserve" width="512px" height="512px">
<g>
	<g>
		<g>
			<polygon points="24.966,48.968 9.507,31.616 12.493,28.955 25.034,43.032 51.538,14.635 54.462,17.365    " fill="#91DC5A"/>
		</g>
	</g>
	<g>
		<g>
			<path d="M56,64H8c-3.888,0-8-4.112-8-8V8c0-3.888,4.112-8,8-8h48c3.888,0,8,4.112,8,8v48C64,59.888,59.888,64,56,64z M8,4     C6.355,4,4,6.355,4,8v48c0,1.645,2.355,4,4,4h48c1.645,0,4-2.355,4-4V8c0-1.645-2.355-4-4-4H8z" fill="#91DC5A"/>
		</g>
	</g>
	<g>
	</g>
	<g>
	</g>
	<g>
	</g>
	<g>
	</g>
	<g>
	</g>
	<g>
	</g>
	<g>
	</g>
	<g>
	</g>
	<g>
	</g>
	<g>
	</g>
	<g>
	</g>
	<g>
	</g>
	<g>
	</g>
	<g>
	</g>
	<g>
	</g>
</g>
<g>
</g>
<g>
</g>
<g>
</g>
<g>
</g>
<g>
</g>
<g>
</g>
<g>
</g>
<g>
</g>
<g>
</g>
<g>
</g>
<g>
</g>
<g>
</g>
<g>
</g>
<g>
</g>
<g>
</g>
</svg>
